<svg width="64" height="64" viewBox="0 0 64 64" fill="none" xmlns="http://www.w3.org/2000/svg">
<g clip-path="url(#clip0_52776_2)">
<path d="M39.6811 16.442C39.7586 16.7283 39.8918 16.9965 40.0731 17.2313C40.2543 17.4661 40.4801 17.6629 40.7374 17.8104C40.9948 17.9579 41.2787 18.0532 41.5729 18.0909C41.8671 18.1286 42.1659 18.1079 42.4521 18.03L50.0401 15.973C50.3262 15.8958 50.5943 15.763 50.829 15.5821C51.0638 15.4012 51.2605 15.1758 51.4081 14.9189C51.5557 14.6619 51.6512 14.3783 51.6891 14.0844C51.727 13.7905 51.7066 13.492 51.6291 13.206L50.2521 8.11402C50.0953 7.53563 49.7152 7.04321 49.1953 6.74504C48.6755 6.44687 48.0585 6.36737 47.4801 6.52402L39.8921 8.58102C39.3144 8.73854 38.8228 9.11867 38.5249 9.6381C38.227 10.1575 38.1473 10.7739 38.3031 11.352L39.6811 16.442ZM24.4121 16.581C24.2544 17.158 23.8744 17.6489 23.3553 17.9462C22.8363 18.2435 22.2206 18.3229 21.6431 18.167L14.0561 16.11C13.7698 16.033 13.5015 15.9003 13.2666 15.7196C13.0316 15.5388 12.8346 15.3134 12.6868 15.0564C12.5391 14.7994 12.4434 14.5158 12.4054 14.2218C12.3673 13.9278 12.3876 13.6292 12.4651 13.343L13.8431 8.25202C14.0001 7.67385 14.3804 7.18174 14.9002 6.88393C15.4201 6.58613 16.0369 6.50702 16.6151 6.66402L24.2011 8.72102C24.4874 8.79835 24.7557 8.93131 24.9906 9.11232C25.2255 9.29333 25.4224 9.51884 25.5701 9.77598C25.7179 10.0331 25.8135 10.3168 25.8516 10.6109C25.8897 10.905 25.8695 11.2037 25.7921 11.49L24.4121 16.581" fill="#405866"/>
<path d="M30.4422 10.674C30.9932 12.166 31.6712 14.144 32.0422 16.21C32.4362 18.438 31.6052 19.664 30.0422 21.034C29.5842 21.431 29.4282 22.018 29.6302 22.569C29.8432 23.132 30.3942 23.526 30.9722 23.526C31.3052 23.526 31.6242 23.402 31.8952 23.164C33.2282 22.003 34.2242 20.919 34.7502 19.395C35.3762 17.594 34.8652 15.492 34.4872 13.957C34.0652 12.245 33.4512 10.57 32.8532 8.94703L32.6872 8.50203C31.7972 6.08403 31.5852 4.26303 33.1082 2.10203C33.4172 1.65703 33.4622 1.14003 33.2272 0.681033C32.7692 -0.199967 31.3762 -0.353967 30.7742 0.502033C29.9042 1.73403 29.0202 3.28303 29.0552 5.40903C29.0872 7.06203 29.6702 8.60903 30.2342 10.107L30.4472 10.672" fill="#354A54"/>
<path d="M30.743 22.621C30.538 22.073 30.6961 21.485 31.1521 21.087C32.7181 19.719 33.5501 18.491 33.1521 16.265C32.7851 14.199 32.1051 12.225 31.5551 10.729L31.342 10.162C30.782 8.66496 30.1961 7.11796 30.1661 5.46496C30.1281 3.33496 31.0121 1.78896 31.8841 0.557963C32.0221 0.356963 32.2061 0.215963 32.4071 0.120963C31.8091 -0.141037 31.0371 -0.0260366 30.6281 0.557963C29.7571 1.78796 28.8771 3.33496 28.9091 5.46496C28.9431 7.11796 29.521 8.66496 30.088 10.162L30.2971 10.729C30.8521 12.221 31.531 14.199 31.899 16.265C32.293 18.491 31.4621 19.719 29.8991 21.087C29.4391 21.485 29.283 22.073 29.49 22.621C29.698 23.186 30.2491 23.581 30.8261 23.581C31.0421 23.581 31.253 23.52 31.452 23.417C31.1247 23.249 30.8716 22.9653 30.7421 22.621" fill="#405866"/>
<path d="M5.97579 16.4809C14.3598 2.70095 26.9958 12.2869 26.9958 12.2869C27.8148 12.9049 29.3258 13.4149 30.3488 13.4189L33.7368 13.4209C34.7638 13.4209 36.2758 12.9129 37.0928 12.2909C37.0928 12.2909 49.7278 2.70695 58.1128 16.4829C66.5038 30.2579 63.1228 45.2589 63.1228 45.2589C62.5278 48.9329 60.5778 51.3839 56.8948 51.0729C53.2228 50.7659 45.2538 41.1849 45.2538 41.1849C44.5978 40.3939 43.2188 39.7479 42.1898 39.7479L21.9038 39.7429C20.8808 39.7429 19.5028 40.3889 18.8448 41.1759C18.8448 41.1759 10.8698 50.7659 7.19779 51.0719C3.51579 51.3799 1.56279 48.9239 0.975791 45.2539C0.975791 45.2559 -2.40921 30.2549 5.97579 16.4809" fill="#354A54"/>
<path d="M10.4722 45.2C10.4722 45.2 7.08718 30.2 15.4712 16.426C17.5692 12.98 19.9322 10.994 22.2982 9.95498C17.8562 8.40598 11.0582 8.00598 5.88218 16.51C-2.49882 30.289 0.882181 45.286 0.882181 45.286C1.47118 48.96 3.42718 51.412 7.10418 51.101C8.29218 51.006 9.92918 49.932 11.6012 48.533C11.0492 47.613 10.6772 46.483 10.4732 45.2M39.8472 13.359H43.2332C44.2572 13.363 45.7682 12.853 46.5862 12.234C46.5862 12.234 48.3372 10.907 50.9672 9.94898C43.9572 7.04598 36.9992 12.321 36.9992 12.321C36.9402 12.364 36.8802 12.408 36.8162 12.449C37.6692 12.966 38.9442 13.358 39.8462 13.358M54.7452 41.13C54.0922 40.339 52.7132 39.692 51.6862 39.692L31.4002 39.69C31.1602 39.6941 30.9215 39.7246 30.6882 39.781H42.0982C43.1232 39.781 44.5052 40.427 45.1592 41.218C45.1592 41.218 53.1302 50.803 56.8022 51.11C59.2532 51.315 60.9352 50.296 61.9622 48.507C58.4442 45.574 54.7452 41.13 54.7452 41.13" fill="#405866"/>
<path d="M23.7583 23.469C23.7347 23.1656 23.725 22.8613 23.7293 22.557C23.7277 22.5073 23.7398 22.4582 23.7643 22.415C23.6529 22.1971 23.5126 21.9953 23.3473 21.815C23.3119 21.7798 23.286 21.7362 23.2722 21.6882C23.2584 21.6403 23.257 21.5896 23.2683 21.541H19.0603V17.308H14.5143V21.541H10.8633V26.157H14.5143V29.582H19.0603V26.157H23.5103C23.5363 25.318 23.7403 24.479 23.8413 23.643C23.793 23.5973 23.7634 23.5353 23.7583 23.469Z" fill="#A2ABAF"/>
<path d="M19.0801 17.194C19.0801 16.541 18.5521 16.011 17.9011 16.011H15.7001C15.0491 16.011 14.5171 16.541 14.5171 17.194C14.5171 17.845 15.0481 18.375 15.7001 18.375H17.9011C18.056 18.3749 18.2095 18.3442 18.3526 18.2848C18.4957 18.2254 18.6257 18.1383 18.7352 18.0287C18.8447 17.919 18.9315 17.7888 18.9907 17.6456C19.0498 17.5024 19.0802 17.3489 19.0801 17.194" fill="#A2ABAF"/>
<path d="M10.8633 26.09V21.545H14.4793V18.28H19.0953V21.545H23.3303V26.09H19.0953V29.586H14.4793V26.09H10.8633Z" fill="#A2ABAF"/>
<path d="M23.4452 26.1C24.0972 26.1 24.6262 25.571 24.6262 24.918V22.719C24.6136 22.4141 24.4837 22.126 24.2636 21.9148C24.0435 21.7035 23.7502 21.5856 23.4452 21.5856C23.1401 21.5856 22.8468 21.7035 22.6267 21.9148C22.4066 22.126 22.2767 22.4141 22.2642 22.719V24.918C22.2639 25.0732 22.2943 25.2269 22.3535 25.3704C22.4127 25.5138 22.4997 25.6442 22.6094 25.754C22.7191 25.8638 22.8494 25.9509 22.9928 26.0102C23.1362 26.0696 23.2899 26.1001 23.4452 26.1" fill="#A2ABAF"/>
<path d="M9.8144 24.23C9.8454 24.535 9.8454 24.836 9.8454 25.141C9.84687 25.1902 9.83439 25.2387 9.8094 25.281C9.9174 25.492 10.0544 25.694 10.2234 25.883C10.3024 25.969 10.3274 26.068 10.3044 26.155H14.5114V30.389H19.0604V26.155H22.7094V21.54H19.0604V18.118H14.5114V21.54H10.0614C10.0384 22.38 9.8334 23.218 9.7334 24.053C9.7807 24.1005 9.80944 24.1633 9.8144 24.23" fill="#A2ABAF"/>
<path d="M14.4932 30.503C14.4932 31.156 15.0252 31.687 15.6812 31.687H17.8772C18.5292 31.687 19.0602 31.156 19.0602 30.503C19.0602 29.854 18.5292 29.321 17.8772 29.321H15.6812C15.0252 29.321 14.4932 29.854 14.4932 30.503" fill="#A2ABAF"/>
<path d="M22.7092 21.609V26.154H19.0932V29.421H14.4752V26.154H10.2422V21.609H14.4752V18.118H19.0932V21.609H22.7092" fill="#A2ABAF"/>
<path d="M10.1282 21.595C9.9732 21.595 9.81967 21.6255 9.67645 21.6849C9.53322 21.7443 9.40309 21.8313 9.2935 21.9409C9.18392 22.0506 9.09702 22.1808 9.03778 22.3241C8.97854 22.4674 8.94811 22.6209 8.94824 22.776V24.974C8.94824 25.2872 9.07267 25.5876 9.29415 25.8091C9.51563 26.0305 9.81602 26.155 10.1292 26.155C10.4425 26.155 10.7429 26.0305 10.9643 25.8091C11.1858 25.5876 11.3102 25.2872 11.3102 24.974V22.776C11.3104 22.6208 11.2799 22.467 11.2205 22.3236C11.1611 22.1802 11.0741 22.0499 10.9643 21.9402C10.8545 21.8305 10.7241 21.7436 10.5807 21.6843C10.4372 21.6251 10.2835 21.5947 10.1282 21.595" fill="#A2ABAF"/>
<path d="M23.1998 23.0601C23.1736 22.7571 23.1619 22.4531 23.1648 22.1491C23.1648 22.0941 23.1808 22.0481 23.1998 22.0091C23.0895 21.7911 22.9498 21.5892 22.7848 21.4091C22.7507 21.3733 22.7257 21.3298 22.7119 21.2822C22.6982 21.2347 22.6961 21.1846 22.7058 21.1361H18.5028V16.9031H13.9568V21.1361H10.3008V25.7541H13.9568V29.1741H18.5028V25.7541H22.9488C22.9748 24.9111 23.1808 24.0721 23.2798 23.2371C23.2322 23.19 23.2037 23.1269 23.1998 23.0601" fill="#CBD5DC"/>
<path d="M18.5131 16.789C18.5131 16.138 17.9831 15.608 17.3321 15.608H15.1321C14.9772 15.6082 14.8238 15.6388 14.6806 15.6982C14.5375 15.7577 14.4075 15.8447 14.298 15.9544C14.1886 16.064 14.1017 16.1942 14.0426 16.3374C13.9834 16.4806 13.953 16.6341 13.9531 16.789C13.9529 16.9441 13.9832 17.0977 14.0423 17.241C14.1014 17.3843 14.1882 17.5146 14.2977 17.6244C14.4072 17.7341 14.5372 17.8212 14.6804 17.8807C14.8236 17.9402 14.9771 17.9709 15.1321 17.971H17.3321C17.9831 17.971 18.5131 17.442 18.5131 16.789Z" fill="#CBD5DC"/>
<path d="M10.2969 25.686V21.139H13.9159V17.876H18.5309V21.139H22.7659V25.686H18.5309V29.177H13.9159V25.686H10.2969" fill="#CBD5DC"/>
<path d="M22.8778 25.7011C23.5358 25.7011 24.0628 25.1701 24.0628 24.5171V22.3191C24.0629 22.1636 24.0323 22.0096 23.9728 21.866C23.9132 21.7224 23.8259 21.592 23.7158 21.4823C23.6056 21.3725 23.4749 21.2856 23.3311 21.2266C23.1873 21.1675 23.0332 21.1374 22.8778 21.1381C22.2288 21.1381 21.6968 21.6651 21.6968 22.3191V24.5171C21.6968 25.1701 22.2288 25.7011 22.8778 25.7011Z" fill="#CBD5DC"/>
<path d="M9.25187 23.826C9.27787 24.129 9.27987 24.435 9.27987 24.736C9.27937 24.7855 9.26918 24.8344 9.24988 24.88C9.35488 25.091 9.48988 25.29 9.65888 25.479C9.73888 25.565 9.76187 25.664 9.73987 25.753H13.9469V29.984H18.4929V25.753H22.1439V21.137H18.4929V17.713H13.9469V21.137H9.50187C9.47687 21.977 9.26687 22.816 9.17188 23.65C9.21742 23.6981 9.24558 23.7601 9.25187 23.826" fill="#CBD5DC"/>
<path d="M13.9341 30.1C13.9333 30.2555 13.9633 30.4097 14.0223 30.5536C14.0813 30.6975 14.1682 30.8284 14.2779 30.9386C14.3877 31.0488 14.5182 31.1363 14.6618 31.1959C14.8055 31.2555 14.9595 31.2861 15.1151 31.286H17.3131C17.6205 31.277 17.9123 31.1486 18.1266 30.928C18.3409 30.7074 18.4607 30.412 18.4607 30.1045C18.4607 29.7969 18.3409 29.5015 18.1266 29.2809C17.9123 29.0603 17.6205 28.9319 17.3131 28.923H15.1151C14.4611 28.923 13.9341 29.45 13.9341 30.1" fill="#CBD5DC"/>
<path d="M22.1397 21.2V25.747H18.5267V29.01H13.9087V25.747H9.67773V21.2H13.9087V17.707H18.5267V21.2H22.1397Z" fill="#CBD5DC"/>
<path d="M9.56388 21.1901C8.91288 21.1901 8.37988 21.7191 8.37988 22.3751V24.5711C8.38883 24.8787 8.51734 25.1708 8.73812 25.3853C8.95891 25.5997 9.25459 25.7197 9.56238 25.7197C9.87018 25.7197 10.1659 25.5997 10.3866 25.3853C10.6074 25.1708 10.7359 24.8787 10.7449 24.5711V22.3751C10.7449 21.7201 10.2169 21.1901 9.56388 21.1901Z" fill="#CBD5DC"/>
<path d="M54.58 18.09C54.58 18.8163 54.2915 19.5128 53.7779 20.0264C53.2644 20.54 52.5678 20.8285 51.8415 20.8285C51.1152 20.8285 50.4187 20.54 49.9051 20.0264C49.3915 19.5128 49.103 18.8163 49.103 18.09C49.1036 17.3634 49.3924 16.6668 49.9061 16.1531C50.4199 15.6394 51.1165 15.3505 51.843 15.35C52.2027 15.35 52.5589 15.4209 52.8911 15.5586C53.2234 15.6963 53.5252 15.8982 53.7794 16.1527C54.0336 16.4072 54.2352 16.7092 54.3725 17.0416C54.5099 17.3741 54.5804 17.7303 54.58 18.09" fill="#FAAA33"/>
<path d="M44.3802 22.951C45.894 22.951 47.1212 21.7238 47.1212 20.21C47.1212 18.6962 45.894 17.469 44.3802 17.469C42.8663 17.469 41.6392 18.6962 41.6392 20.21C41.6392 21.7238 42.8663 22.951 44.3802 22.951Z" fill="#FAAA33"/>
<path d="M57.3199 25.318C57.3189 26.0452 57.0292 26.7423 56.5145 27.256C55.9998 27.7698 55.3022 28.0582 54.5749 28.058C53.8574 28.0443 53.174 27.7496 52.6714 27.2374C52.1688 26.7251 51.8873 26.0361 51.8873 25.3185C51.8873 24.6009 52.1688 23.9119 52.6714 23.3996C53.174 22.8873 53.8574 22.5927 54.5749 22.579C54.935 22.5786 55.2917 22.6491 55.6245 22.7866C55.9573 22.924 56.2598 23.1256 56.5147 23.38C56.7696 23.6343 56.9719 23.9364 57.1101 24.2689C57.2482 24.6014 57.3195 24.9579 57.3199 25.318M49.8559 27.434C49.8366 28.1476 49.5396 28.8255 49.0281 29.3234C48.5165 29.8213 47.8308 30.1 47.1169 30.1C46.4031 30.1 45.7174 29.8213 45.2058 29.3234C44.6942 28.8255 44.3972 28.1476 44.3779 27.434C44.3775 27.0739 44.4481 26.7173 44.5855 26.3844C44.7229 26.0516 44.9246 25.7491 45.1789 25.4942C45.4333 25.2393 45.7353 25.037 46.0678 24.8989C46.4004 24.7607 46.7568 24.6894 47.1169 24.689C47.477 24.6894 47.8335 24.7607 48.166 24.8989C48.4985 25.037 48.8006 25.2393 49.0549 25.4942C49.3093 25.7491 49.5109 26.0516 49.6484 26.3844C49.7858 26.7173 49.8563 27.0739 49.8559 27.434" fill="#FAAA33"/>
</g>
<defs>
<clipPath id="clip0_52776_2">
<rect width="64" height="64" fill="white"/>
</clipPath>
</defs>
</svg>
