<svg width="20" height="19" viewBox="0 0 20 19" fill="none" xmlns="http://www.w3.org/2000/svg">
<path fill-rule="evenodd" clip-rule="evenodd" d="M19.96 13.7551V9.68369V0.810059H2.93869L0.811035 3.10676V15.2167H6.13018V18.9749H8.47061L11.0238 16.2606H17.4068L19.96 13.7551ZM7.40669 13.5464H4.00244C3.76839 13.5464 3.5769 13.3585 3.5769 13.1288V2.89805C3.5769 2.66838 3.76839 2.48047 4.00244 2.48047H17.6195C17.8535 2.48047 18.045 2.66838 18.045 2.89805V10.8321C18.045 10.947 18.0024 11.0513 17.9226 11.1296L15.5822 13.4263C15.5024 13.5046 15.3907 13.5464 15.279 13.5464H11.3695L8.07159 15.77C8.00244 15.817 7.91733 15.8431 7.83222 15.8431C7.76307 15.8431 7.69924 15.8274 7.63542 15.7961C7.4918 15.7231 7.40669 15.5821 7.40669 15.4255V13.5464Z" fill="white"/>
<path d="M13.7895 9.89262V5.7168H12.0874V9.89262H13.7895ZM9.53416 9.89262V5.7168H7.83203V9.89262H9.53416Z" fill="white"/>
</svg>
