<svg width="19" height="15" viewBox="0 0 19 15" fill="none" xmlns="http://www.w3.org/2000/svg">
<path opacity="0.3" d="M18.6024 1.95697C17.9274 2.24261 17.2115 2.43014 16.4785 2.51332C17.2409 2.07545 17.8273 1.38347 18.1033 0.557738C17.3775 0.969423 16.5833 1.25947 15.7551 1.41534C15.0562 0.701951 14.0788 0.297869 13.0562 0.299566C11.0148 0.299566 9.35796 1.88157 9.35796 3.83309C9.35796 4.11038 9.39062 4.38064 9.45456 4.63871C6.38074 4.4911 3.6565 3.08484 1.83222 0.94648C1.51368 1.46777 1.33199 2.07545 1.33199 2.72324C1.33199 3.94871 1.98459 5.03053 2.97665 5.66436C2.38929 5.64716 1.8148 5.49557 1.3014 5.22231V5.26738C1.3014 6.97907 2.57624 8.40743 4.26713 8.73275C3.72255 8.87368 3.15157 8.89435 2.5974 8.7932C3.06819 10.1974 4.43433 11.2189 6.05185 11.2485C4.78644 12.1948 3.19215 12.7609 1.45918 12.7609C1.1645 12.7605 0.870086 12.744 0.577393 12.7114C2.21377 13.7138 4.158 14.2996 6.24619 14.2996C13.0482 14.2996 16.7671 8.91366 16.7671 4.24304C16.7671 4.09027 16.7671 3.9375 16.7556 3.78583C17.4792 3.28543 18.1042 2.6662 18.6013 1.95697H18.6024Z" fill="white"/>
</svg>
