<svg width="22" height="17" viewBox="0 0 22 17" fill="none" xmlns="http://www.w3.org/2000/svg">
<path fill-rule="evenodd" clip-rule="evenodd" d="M21.2136 2.55955C20.4406 2.88155 19.6096 3.09655 18.7386 3.19455C19.6286 2.69455 20.3116 1.90255 20.6336 0.960551C19.7996 1.42255 18.8776 1.75855 17.8956 1.94055C17.1106 1.15455 15.9896 0.664551 14.7506 0.664551C12.3706 0.664551 10.4396 2.47355 10.4396 4.70355C10.4396 5.02055 10.4776 5.32955 10.5516 5.62455C6.96957 5.45555 3.79357 3.84755 1.66757 1.40455C1.29657 2.00155 1.08457 2.69455 1.08457 3.43555C1.08457 4.83555 1.84557 6.07355 3.00157 6.79755C2.29557 6.77555 1.63157 6.59455 1.04957 6.29155C1.04957 6.30955 1.04957 6.32455 1.04957 6.34355C1.04957 8.30055 2.53457 9.93255 4.50657 10.3036C4.14557 10.3956 3.76357 10.4436 3.37157 10.4436C3.09357 10.4436 2.82357 10.4196 2.56057 10.3736C3.10857 11.9766 4.70057 13.1456 6.58657 13.1786C5.11157 14.2616 3.25357 14.9066 1.23357 14.9066C0.885566 14.9066 0.542566 14.8876 0.205566 14.8506C2.11257 15.9956 4.37857 16.6656 6.81257 16.6656C14.7406 16.6656 19.0756 10.5096 19.0756 5.17255C19.0756 4.99655 19.0706 4.82355 19.0626 4.64955C19.9046 4.07955 20.6356 3.36855 21.2136 2.55955Z" fill="white"/>
</svg>
