<svg width="31" height="32" viewBox="0 0 31 32" fill="none" xmlns="http://www.w3.org/2000/svg">
<path d="M20.61 0.313477H5.98961C3.12627 0.313477 0.799805 2.68074 0.799805 5.59429V13.0271C0.799805 15.9462 3.12627 18.308 5.98961 18.308H20.6046C23.4733 18.308 25.7944 15.9407 25.7944 13.0271V5.59429C25.7998 2.68074 23.4733 0.313477 20.61 0.313477ZM17.0959 9.67767L10.2575 12.994C10.0731 13.0823 9.86705 12.9499 9.86705 12.7402V5.89778C9.86705 5.68809 10.084 5.55566 10.2629 5.64947L17.1013 9.17552C17.3074 9.28037 17.302 9.57834 17.0959 9.67767Z" fill="#FF1313"/>
<path d="M20.2969 12.3926L30.2969 22.3926H24.2969L20.2969 26.3926V12.3926Z" fill="white"/>
<line x1="23.6896" y1="20.8355" x2="27.6896" y2="30.8355" stroke="white" stroke-width="3"/>
</svg>
